<?xml version="1.0" encoding="UTF-8"?>
<svg width="23px" height="22px" viewBox="0 0 23 22" version="1.1" xmlns="http://www.w3.org/2000/svg" xmlns:xlink="http://www.w3.org/1999/xlink">
    <!-- Generator: Sketch 51 (57462) - http://www.bohemiancoding.com/sketch -->
    <title>Group 6</title>
    <desc>Created with Sketch.</desc>
    <defs></defs>
    <g id="Page-1" stroke="none" stroke-width="1" fill="none" fill-rule="evenodd">
        <g id="Group-6" transform="translate(-2.000000, -3.000000)">
            <rect id="Rectangle-2" fill="#D8D8D8" opacity="0" x="0" y="0" width="26" height="26"></rect>
            <path d="M5.4942327,14.6228686 C8.10080241,15.8608325 10.3901705,17.7337011 12.1965898,20.0611836 C12.2362086,20.1105817 12.2760782,20.1604814 12.3156971,20.2111334 C11.2018556,17.4267803 9.51604814,14.971665 7.41850552,13.0203109 C7.01203611,13.5265797 6.33951856,14.087011 5.4942327,14.6228686 L5.4942327,14.6228686 Z M11.277332,7.40521565 C11.6010532,8.1995988 13.1657472,12.4588766 13.5248245,21.2896189 C12.0990471,16.527332 9.17377131,12.504012 5.36384152,9.85707121 C6.31995988,9.5719659 7.35707121,9.20361083 8.4222668,8.76053159 C9.46364092,8.32748245 10.4285356,7.86609829 11.277332,7.40521565 L11.277332,7.40521565 Z M16.9967402,22.5672016 C18.6374122,19.1677533 20.6105817,16.2637914 22.8071715,14.0125376 C22.8425276,14.0579238 22.8781344,14.1030592 22.913992,14.1481946 C23.4222668,14.8116851 24.1025577,15.553661 24.9097292,16.3159478 C22.1777834,17.6772818 19.4816951,19.8011535 16.9967402,22.5672016 L16.9967402,22.5672016 Z M15.3595787,25 C16.7033601,18.8387663 19.5341023,13.6176028 23.2725677,10.172016 C22.9297894,9.99247743 22.581996,9.80115346 22.2319458,9.59829488 C21.2567703,9.03410231 20.3673521,8.44383149 19.6053159,7.86935807 C16.8327482,12.058676 15.2023571,17.4365597 15.2788365,23.3024072 C15.2856068,23.8515547 15.3091775,24.3961886 15.3455366,24.9365597 L15.3595787,25 L15.3595787,25 Z M11.5962889,3 C12.8909228,3.14142427 14.360331,3.22166499 15.9182548,3.22166499 C16.5636911,3.22166499 17.1945838,3.20787362 17.8039117,3.18179539 C16.1038114,8.57422267 14.9230191,14.7369609 14.4137412,21.3568205 C14.1281344,14.6624875 13.140672,8.43630893 11.5962889,3 L11.5962889,3 Z M13.6587262,23.7073721 C10.7918756,20.1015547 6.69759278,17.5127884 2,16.5797392 C2.65822467,15.7846038 3.17026078,15.0002508 3.48294885,14.3254764 C8.33450351,16.5393681 12.0095286,20.0406219 13.642678,23.5837513 C13.6499498,23.6334002 13.6549649,23.6747743 13.6587262,23.7073721 Z" id="Shape-Copy-2" fill="#F39800"></path>
        </g>
    </g>
</svg>