<svg id="图层_1" data-name="图层 1" xmlns="http://www.w3.org/2000/svg" viewBox="0 0 25 24"><defs><style>.cls-1{fill:#f4900b;fill-rule:evenodd;}</style></defs><title>2524</title><path class="cls-1" d="M11.29,2.91A.65.65,0,0,1,12,2.16c.61,0,1.26.07,1.94.07s1.22,0,1.77-.06a.65.65,0,0,1,.68.77L13.63,17.15Z"/><path class="cls-1" d="M19.15,7.05a.65.65,0,0,1,.93-.13l1,.81,1.06.78a.65.65,0,0,1,.07,1,32.65,32.65,0,0,0-4.83,5.79,26.32,26.32,0,0,0-2.56,4.95l-.59,1.52a22,22,0,0,1,2-9.77A25.52,25.52,0,0,1,19.15,7.05Z"/><path class="cls-1" d="M21.65,13.12a.48.48,0,0,1,.74.1q.21.34.45.69c.22.31.43.6.65.87a.48.48,0,0,1-.18.74,22.84,22.84,0,0,0-7.48,5.29A24,24,0,0,1,19,16,30.12,30.12,0,0,1,21.65,13.12Z"/><path class="cls-1" d="M8.88,6a.64.64,0,0,1,.95.31,46,46,0,0,1,1.56,4.81A48.29,48.29,0,0,1,13,19.9,42.81,42.81,0,0,0,8.68,12,40.63,40.63,0,0,0,6,8.49a.65.65,0,0,1,.22-1c.44-.21.89-.44,1.36-.7S8.48,6.28,8.88,6Z"/><path class="cls-1" d="M5.28,13.31a.48.48,0,0,1,0-.82l.28-.2c.23-.18.44-.35.63-.52a.48.48,0,0,1,.65,0,17.1,17.1,0,0,1,2.28,2.62,17.12,17.12,0,0,1,2.1,4A17.84,17.84,0,0,0,8.1,15.2,17.83,17.83,0,0,0,5.28,13.31Z"/><path class="cls-1" d="M2.85,13.27a.48.48,0,0,0-.61.22,7.33,7.33,0,0,1-.45.74l-.27.36a.48.48,0,0,0,.28.78,16.14,16.14,0,0,1,6,2.42,20.79,20.79,0,0,1,4.53,4,20.19,20.19,0,0,0-4.53-5.67A15.66,15.66,0,0,0,2.85,13.27Z"/></svg>