<svg xmlns="http://www.w3.org/2000/svg" viewBox="0 0 21.33 19.11"><defs><style>.cls-1{fill:#fe5702;fill-rule:evenodd;}</style></defs><title>资源 1</title><g id="图层_2" data-name="图层 2"><g id="图层_1-2" data-name="图层 1"><path class="cls-1" d="M9,.75A.65.65,0,0,1,9.73,0c.6.05,1.25.07,1.94.07S12.92,0,13.49,0a.61.61,0,0,1,.64.72c-.88,4.55-1.57,9.1-2.43,13.65a.12.12,0,0,1-.23,0Z"/><path class="cls-1" d="M16.9,4.89a.64.64,0,0,1,.92-.13c.34.27.68.54,1,.81l1.06.78a.64.64,0,0,1,.07,1,32.35,32.35,0,0,0-4.82,5.79,26.39,26.39,0,0,0-2.56,4.94l-.37,1A.12.12,0,0,1,12,19a22.28,22.28,0,0,1,2.05-9.17A25.19,25.19,0,0,1,16.9,4.89Z"/><path class="cls-1" d="M19.29,11a.52.52,0,0,1,.78.11c.14.24.3.48.47.72s.45.63.67.91a.5.5,0,0,1-.19.78,23.73,23.73,0,0,0-3.94,2.19,23.48,23.48,0,0,0-3.38,2.82.12.12,0,0,1-.18-.14,24.82,24.82,0,0,1,3-4.41A31.79,31.79,0,0,1,19.29,11Z"/><path class="cls-1" d="M6.52,3.94a.76.76,0,0,1,1.11.37A48.52,48.52,0,0,1,9.14,9a51.35,51.35,0,0,1,1.51,8,.11.11,0,0,1-.22.05,44.3,44.3,0,0,0-4-7.23A40.42,40.42,0,0,0,3.88,6.43a.76.76,0,0,1,.25-1.17c.4-.19.81-.4,1.24-.64S6.16,4.17,6.52,3.94Z"/><path class="cls-1" d="M3.05,11.27a.52.52,0,0,1,0-.88l.3-.22A8.17,8.17,0,0,0,4,9.6a.51.51,0,0,1,.69,0,18,18,0,0,1,2.45,2.81A18.78,18.78,0,0,1,9.1,16a.12.12,0,0,1-.2.11,18.75,18.75,0,0,0-2.82-2.86A18.93,18.93,0,0,0,3.05,11.27Z"/><path class="cls-1" d="M1.33,11.75A.43.43,0,0,0,.77,12c-.12.21-.26.44-.42.68L.1,13a.44.44,0,0,0,.25.71,16.88,16.88,0,0,1,5.82,2.44,17.31,17.31,0,0,1,3.16,2.69.11.11,0,0,0,.17-.14,19.32,19.32,0,0,0-3.63-4.25A14.56,14.56,0,0,0,1.33,11.75Z"/></g></g></svg>