<svg id="图层_1" data-name="图层 1" xmlns="http://www.w3.org/2000/svg" viewBox="0 0 931.49 931.49"><defs><style>.cls-1{fill-rule:evenodd;}</style></defs><title>黑稿</title><path class="cls-1" d="M400.74,139.79A23.92,23.92,0,0,1,426,112c22.43,1.59,46.44,2.52,71.87,2.45,23.77-.07,46.29-1,67.41-2.51A22.46,22.46,0,0,1,589,138.65c-32.58,168.49-58.08,337-90,505.47a4.2,4.2,0,0,1-8.25,0Z"/><path class="cls-1" d="M691.8,292.84A23.83,23.83,0,0,1,726,288.33q18.46,14.82,38.23,29.82,19.95,15.11,39.41,29a23.79,23.79,0,0,1,2.73,36.58c-51.85,49.65-119,122.08-178.6,214.4-21,32.48-60.35,94.18-94.82,183.13L519.13,816.9a4.18,4.18,0,0,1-8.08-1.51c.26-86.81,12.37-192.81,75.91-339.68A943.88,943.88,0,0,1,691.8,292.84Z"/><path class="cls-1" d="M780.21,517.45A18.9,18.9,0,0,1,809,521.59c5.37,8.65,11.17,17.54,17.45,26.58,8.38,12.07,16.8,23.28,25.1,33.64a18.69,18.69,0,0,1-7.07,28.85A887.49,887.49,0,0,0,573.27,796.2a4.17,4.17,0,0,1-6.63-4.9A933.74,933.74,0,0,1,677,627.74C712.05,586,747.6,547,780.21,517.45Z"/><path class="cls-1" d="M307.2,258a28,28,0,0,1,41.18,13.61,1699.72,1699.72,0,0,1,55.78,173.05c28.57,108.19,47.93,210.18,56,296.75a4.19,4.19,0,0,1-8,2C418.21,663.52,368,570.13,304.27,475.68A1504.06,1504.06,0,0,0,209.54,350a28,28,0,0,1,9.35-43.32c14.77-7.08,30.06-14.92,45.74-23.6C279.67,274.78,293.86,266.36,307.2,258Z"/><path class="cls-1" d="M179,529.22a19.22,19.22,0,0,1-2-32.59q5.49-3.87,11.12-8.13c9.26-7,17.63-14.08,25.18-20.92a18.89,18.89,0,0,1,25.66.23,678.63,678.63,0,0,1,90.58,104.26,678.52,678.52,0,0,1,73.2,133.75A4.17,4.17,0,0,1,395.6,710,708.18,708.18,0,0,0,290.94,604.21,708.53,708.53,0,0,0,179,529.22Z"/><path class="cls-1" d="M115,547a16.57,16.57,0,0,0-20.8,7.72,249.89,249.89,0,0,1-15.5,25.33c-3.07,4.41-6.17,8.56-9.25,12.44A16.55,16.55,0,0,0,79,619c54.4,11.48,136.93,37.49,215.21,90.17,52.46,35.31,86.52,67,117,99.76,3.43,3.67,9.26-.77,6.61-5C389.5,758.26,345,700.94,283.4,646.45,219.88,590.25,161.08,565.49,115,547Z"/></svg>